<svg width="25" height="31" viewBox="0 0 25 31" fill="none" xmlns="http://www.w3.org/2000/svg">
<path d="M2.12647 13.5151C1.0219 13.5151 0.126465 14.4106 0.126465 15.5151C0.126465 16.6197 1.0219 17.5151 2.12646 17.5151L2.12647 13.5151ZM23.9996 16.9294C24.7807 16.1483 24.7807 14.882 23.9996 14.1009L11.2717 1.373C10.4906 0.591953 9.2243 0.591953 8.44326 1.373C7.66221 2.15405 7.66221 3.42038 8.44326 4.20143L19.757 15.5151L8.44325 26.8288C7.6622 27.6099 7.6622 28.8762 8.44325 29.6573C9.2243 30.4383 10.4906 30.4383 11.2717 29.6573L23.9996 16.9294ZM2.12646 17.5151L22.5854 17.5151L22.5854 13.5151L2.12647 13.5151L2.12646 17.5151Z" fill="white"/>
</svg>
