<svg width="25" height="30" viewBox="0 0 25 30" fill="none" xmlns="http://www.w3.org/2000/svg">
<path d="M2.12647 13.1235C1.0219 13.1235 0.126465 14.019 0.126465 15.1235C0.126465 16.2281 1.0219 17.1235 2.12646 17.1235L2.12647 13.1235ZM23.9996 16.5378C24.7807 15.7567 24.7807 14.4904 23.9996 13.7093L11.2717 0.9814C10.4906 0.200351 9.2243 0.200351 8.44326 0.9814C7.66221 1.76245 7.66221 3.02878 8.44326 3.80983L19.757 15.1235L8.44325 26.4372C7.6622 27.2183 7.6622 28.4846 8.44325 29.2657C9.2243 30.0467 10.4906 30.0467 11.2717 29.2657L23.9996 16.5378ZM2.12646 17.1235L22.5854 17.1235L22.5854 13.1235L2.12647 13.1235L2.12646 17.1235Z" fill="white"/>
</svg>
