<svg width="72" height="20" viewBox="0 0 72 20" fill="none" xmlns="http://www.w3.org/2000/svg">
<path d="M0.125 0.518555H3.40687C5.27415 0.518555 6.68875 0.886351 7.67897 1.62194C9.65941 3.09313 10.6496 6.40329 10.6496 9.79834C10.6496 12.2597 10.1121 14.5514 9.09357 16.447C8.04676 18.3991 6.40583 19.3893 3.63321 19.3893H0.125V0.518555ZM2.27519 2.35754V17.5503H3.97271C5.30244 17.5503 6.54729 16.8713 7.2263 15.6265C8.04676 14.127 8.41456 11.6939 8.38627 9.9115C8.30139 4.2531 6.66046 2.35754 3.49175 2.35754H2.27519Z" fill="white"/>
<path d="M13.0987 0.518555H15.2206V2.92338H13.0987V0.518555ZM13.1835 5.44137H15.1357V19.3893H13.1835V5.44137Z" fill="white"/>
<path d="M21.1201 5.10186C23.2703 5.10186 24.5717 6.26183 25.0244 8.61007L23.3552 9.03445C22.9025 7.33693 22.2518 6.77109 21.1484 6.77109C20.0167 6.77109 19.2245 7.47839 19.2245 8.69495C19.2245 9.71346 19.7055 10.3359 20.5543 10.7886L22.8459 12.0051C24.5151 12.8822 25.3073 13.6743 25.3073 15.5982C25.3073 18.1445 23.723 19.7288 21.2333 19.7288C18.6587 19.7288 17.1875 18.3425 16.848 15.8245L18.5738 15.3719C18.9133 17.2957 19.7338 18.0596 21.205 18.0596C22.5064 18.0596 23.2986 17.2391 23.2986 15.9094C23.2986 14.4665 22.8176 14.0704 20.4411 12.9105C18.1494 11.7788 17.3007 10.6754 17.3007 8.89299C17.3007 6.94084 18.5455 5.10186 21.1201 5.10186Z" fill="white"/>
<path d="M30.8587 5.10186C33.207 5.10186 34.6216 6.65792 34.9611 9.62858L33.1221 9.96809C32.8675 7.7896 32.1602 6.77109 30.8305 6.77109C29.1329 6.77109 28.5105 8.24227 28.5105 12.4295C28.5105 15.6548 28.7086 18.0596 30.8305 18.0596C32.1036 18.0596 32.8675 17.126 33.1221 14.8626L34.9611 15.0889C34.5367 18.2576 33.3202 19.7288 30.8305 19.7288C27.8598 19.7288 26.3603 17.6069 26.3603 12.7407C26.3603 7.33693 27.9447 5.10186 30.8587 5.10186Z" fill="white"/>
<path d="M40.8005 5.10186C43.8278 5.10186 45.3838 7.87448 45.3838 12.5427C45.3838 17.4089 43.8278 19.7288 40.7722 19.7288C37.745 19.7288 36.2172 17.2674 36.2172 12.4861C36.2172 7.95935 37.7733 5.10186 40.8005 5.10186ZM38.3674 12.5144C38.3674 16.3904 39.0747 18.0596 40.8005 18.0596C42.498 18.0596 43.2336 16.3621 43.2336 12.7407C43.2336 8.5252 42.5829 6.77109 40.7722 6.77109C39.0464 6.77109 38.3674 8.66665 38.3674 12.5144Z" fill="white"/>
<path d="M46.0516 5.44137H48.0886L50.4934 16.9562L52.8133 5.44137H54.7372L51.4553 19.3893H49.3334L46.0516 5.44137Z" fill="white"/>
<path d="M60.0459 5.10186C62.96 5.10186 64.5161 7.36522 64.5161 12.3163V12.6558H57.4714V12.8822C57.4714 16.4753 58.4616 18.0596 60.244 18.0596C61.4888 18.0596 62.281 17.0977 62.6488 15.2587L64.3746 15.7114C63.6956 18.5406 62.4508 19.7288 60.0742 19.7288C56.9338 19.7288 55.406 17.4655 55.406 12.5992C55.406 7.98765 57.0187 5.10186 60.0459 5.10186ZM57.528 11.0432H62.3659C62.3376 7.90277 61.5454 6.77109 59.9894 6.77109C58.1504 6.77109 57.5845 9.03445 57.528 11.0432Z" fill="white"/>
<path d="M71.1364 5.15845C71.391 5.15845 71.6174 5.21503 71.7305 5.24332V7.42181C71.6174 7.42181 71.4476 7.39351 71.2779 7.39351C68.5618 7.39351 68.3921 10.1378 68.3921 12.5427V19.3893H66.4399V5.44137H68.2223V8.21398C68.7882 6.09208 69.7784 5.15845 71.1364 5.15845Z" fill="white"/>
</svg>
