<svg width="72" height="21" viewBox="0 0 72 21" fill="none" xmlns="http://www.w3.org/2000/svg">
<path d="M0.125 0.909912H3.40687C5.27415 0.909912 6.68875 1.27771 7.67897 2.0133C9.65941 3.48449 10.6496 6.79465 10.6496 10.1897C10.6496 12.6511 10.1121 14.9428 9.09357 16.8383C8.04676 18.7905 6.40583 19.7807 3.63321 19.7807H0.125V0.909912ZM2.27519 2.74889V17.9417H3.97271C5.30244 17.9417 6.54729 17.2627 7.2263 16.0178C8.04676 14.5184 8.41456 12.0853 8.38627 10.3029C8.30139 4.64446 6.66046 2.74889 3.49175 2.74889H2.27519Z" fill="white"/>
<path d="M13.0987 0.909912H15.2206V3.31473H13.0987V0.909912ZM13.1835 5.83272H15.1357V19.7807H13.1835V5.83272Z" fill="white"/>
<path d="M21.1201 5.49322C23.2703 5.49322 24.5717 6.65319 25.0244 9.00143L23.3552 9.42581C22.9025 7.72829 22.2518 7.16245 21.1484 7.16245C20.0167 7.16245 19.2245 7.86975 19.2245 9.0863C19.2245 10.1048 19.7055 10.7272 20.5543 11.1799L22.8459 12.3965C24.5151 13.2735 25.3073 14.0657 25.3073 15.9896C25.3073 18.5358 23.723 20.1202 21.2333 20.1202C18.6587 20.1202 17.1875 18.7339 16.848 16.2159L18.5738 15.7632C18.9133 17.6871 19.7338 18.451 21.205 18.451C22.5064 18.451 23.2986 17.6305 23.2986 16.3008C23.2986 14.8579 22.8176 14.4618 20.4411 13.3018C18.1494 12.1701 17.3007 11.0667 17.3007 9.28435C17.3007 7.3322 18.5455 5.49322 21.1201 5.49322Z" fill="white"/>
<path d="M30.8587 5.49322C33.207 5.49322 34.6216 7.04928 34.9611 10.0199L33.1221 10.3594C32.8675 8.18096 32.1602 7.16245 30.8305 7.16245C29.1329 7.16245 28.5105 8.63363 28.5105 12.8209C28.5105 16.0461 28.7086 18.451 30.8305 18.451C32.1036 18.451 32.8675 17.5173 33.1221 15.254L34.9611 15.4803C34.5367 18.649 33.3202 20.1202 30.8305 20.1202C27.8598 20.1202 26.3603 17.9983 26.3603 13.1321C26.3603 7.72829 27.9447 5.49322 30.8587 5.49322Z" fill="white"/>
<path d="M40.8005 5.49322C43.8278 5.49322 45.3838 8.26584 45.3838 12.934C45.3838 17.8002 43.8278 20.1202 40.7722 20.1202C37.745 20.1202 36.2172 17.6588 36.2172 12.8774C36.2172 8.35071 37.7733 5.49322 40.8005 5.49322ZM38.3674 12.9057C38.3674 16.7817 39.0747 18.451 40.8005 18.451C42.498 18.451 43.2336 16.7534 43.2336 13.1321C43.2336 8.91655 42.5829 7.16245 40.7722 7.16245C39.0464 7.16245 38.3674 9.05801 38.3674 12.9057Z" fill="white"/>
<path d="M46.0516 5.83272H48.0886L50.4934 17.3476L52.8133 5.83272H54.7372L51.4553 19.7807H49.3334L46.0516 5.83272Z" fill="white"/>
<path d="M60.0459 5.49322C62.96 5.49322 64.5161 7.75658 64.5161 12.7077V13.0472H57.4714V13.2735C57.4714 16.8666 58.4616 18.451 60.244 18.451C61.4888 18.451 62.281 17.489 62.6488 15.6501L64.3746 16.1027C63.6956 18.9319 62.4508 20.1202 60.0742 20.1202C56.9338 20.1202 55.406 17.8568 55.406 12.9906C55.406 8.379 57.0187 5.49322 60.0459 5.49322ZM57.528 11.4345H62.3659C62.3376 8.29413 61.5454 7.16245 59.9894 7.16245C58.1504 7.16245 57.5845 9.42581 57.528 11.4345Z" fill="white"/>
<path d="M71.1364 5.5498C71.391 5.5498 71.6174 5.60639 71.7305 5.63468V7.81316C71.6174 7.81316 71.4476 7.78487 71.2779 7.78487C68.5618 7.78487 68.3921 10.5292 68.3921 12.934V19.7807H66.4399V5.83272H68.2223V8.60534C68.7882 6.48344 69.7784 5.5498 71.1364 5.5498Z" fill="white"/>
</svg>
